<mxfile host="app.diagrams.net" agent="Mozilla/5.0 (Windows NT 10.0; Win64; x64) AppleWebKit/537.36 (KHTML, like Gecko) Chrome/132.0.0.0 Safari/537.36" version="26.0.6">
  <diagram id="C5RBs43oDa-KdzZeNtuy" name="Page-1">
    <mxGraphModel dx="2159" dy="1671" grid="1" gridSize="10" guides="1" tooltips="1" connect="1" arrows="1" fold="1" page="1" pageScale="1" pageWidth="827" pageHeight="1169" math="0" shadow="0">
      <root>
        <mxCell id="WIyWlLk6GJQsqaUBKTNV-0" />
        <mxCell id="WIyWlLk6GJQsqaUBKTNV-1" parent="WIyWlLk6GJQsqaUBKTNV-0" />
        <mxCell id="9V8cT2eW6NYt4f0OCbmF-8" value="" style="edgeStyle=orthogonalEdgeStyle;rounded=0;orthogonalLoop=1;jettySize=auto;html=1;" edge="1" parent="WIyWlLk6GJQsqaUBKTNV-1" source="WIyWlLk6GJQsqaUBKTNV-3" target="9V8cT2eW6NYt4f0OCbmF-4">
          <mxGeometry relative="1" as="geometry" />
        </mxCell>
        <mxCell id="9V8cT2eW6NYt4f0OCbmF-11" style="edgeStyle=orthogonalEdgeStyle;rounded=0;orthogonalLoop=1;jettySize=auto;html=1;exitX=0;exitY=0.5;exitDx=0;exitDy=0;entryX=0;entryY=0.5;entryDx=0;entryDy=0;" edge="1" parent="WIyWlLk6GJQsqaUBKTNV-1" source="WIyWlLk6GJQsqaUBKTNV-3" target="9V8cT2eW6NYt4f0OCbmF-9">
          <mxGeometry relative="1" as="geometry" />
        </mxCell>
        <mxCell id="9V8cT2eW6NYt4f0OCbmF-30" style="edgeStyle=orthogonalEdgeStyle;rounded=0;orthogonalLoop=1;jettySize=auto;html=1;exitX=0.014;exitY=0.646;exitDx=0;exitDy=0;entryX=0;entryY=0.75;entryDx=0;entryDy=0;exitPerimeter=0;" edge="1" parent="WIyWlLk6GJQsqaUBKTNV-1" source="WIyWlLk6GJQsqaUBKTNV-3" target="9V8cT2eW6NYt4f0OCbmF-9">
          <mxGeometry relative="1" as="geometry" />
        </mxCell>
        <mxCell id="WIyWlLk6GJQsqaUBKTNV-3" value="Users&lt;div&gt;&lt;div&gt;&lt;ul&gt;&lt;li&gt;userID&amp;nbsp;&amp;nbsp;&lt;/li&gt;&lt;li&gt;name&amp;nbsp;&amp;nbsp;&lt;/li&gt;&lt;li&gt;email&amp;nbsp;&lt;/li&gt;&lt;li&gt;&amp;nbsp;contact&lt;/li&gt;&lt;li&gt;password&lt;/li&gt;&lt;li&gt;jwt authentication&lt;/li&gt;&lt;/ul&gt;&lt;/div&gt;&lt;/div&gt;" style="rounded=1;whiteSpace=wrap;html=1;fontSize=12;glass=0;strokeWidth=1;shadow=0;" parent="WIyWlLk6GJQsqaUBKTNV-1" vertex="1">
          <mxGeometry x="490" y="-860" width="140" height="130" as="geometry" />
        </mxCell>
        <mxCell id="9V8cT2eW6NYt4f0OCbmF-0" value="employeeTable&lt;div&gt;&lt;ul&gt;&lt;li&gt;userId&amp;nbsp;&lt;/li&gt;&lt;li&gt;employeeId&amp;nbsp;&lt;/li&gt;&lt;li&gt;name&amp;nbsp;&lt;/li&gt;&lt;li&gt;email&amp;nbsp;&lt;/li&gt;&lt;li&gt;contact&lt;/li&gt;&lt;/ul&gt;&lt;/div&gt;" style="rounded=0;whiteSpace=wrap;html=1;" vertex="1" parent="WIyWlLk6GJQsqaUBKTNV-1">
          <mxGeometry x="170" y="-330" width="120" height="130" as="geometry" />
        </mxCell>
        <mxCell id="9V8cT2eW6NYt4f0OCbmF-31" style="edgeStyle=orthogonalEdgeStyle;rounded=0;orthogonalLoop=1;jettySize=auto;html=1;exitX=0.005;exitY=0.205;exitDx=0;exitDy=0;exitPerimeter=0;" edge="1" parent="WIyWlLk6GJQsqaUBKTNV-1" source="9V8cT2eW6NYt4f0OCbmF-4" target="9V8cT2eW6NYt4f0OCbmF-9">
          <mxGeometry relative="1" as="geometry" />
        </mxCell>
        <mxCell id="9V8cT2eW6NYt4f0OCbmF-33" style="edgeStyle=orthogonalEdgeStyle;rounded=0;orthogonalLoop=1;jettySize=auto;html=1;exitX=-0.009;exitY=0.327;exitDx=0;exitDy=0;exitPerimeter=0;" edge="1" parent="WIyWlLk6GJQsqaUBKTNV-1" source="9V8cT2eW6NYt4f0OCbmF-4" target="9V8cT2eW6NYt4f0OCbmF-16">
          <mxGeometry relative="1" as="geometry" />
        </mxCell>
        <mxCell id="9V8cT2eW6NYt4f0OCbmF-36" style="edgeStyle=orthogonalEdgeStyle;rounded=0;orthogonalLoop=1;jettySize=auto;html=1;exitX=-0.014;exitY=0.418;exitDx=0;exitDy=0;exitPerimeter=0;" edge="1" parent="WIyWlLk6GJQsqaUBKTNV-1" source="9V8cT2eW6NYt4f0OCbmF-4" target="9V8cT2eW6NYt4f0OCbmF-18">
          <mxGeometry relative="1" as="geometry" />
        </mxCell>
        <mxCell id="9V8cT2eW6NYt4f0OCbmF-38" style="edgeStyle=orthogonalEdgeStyle;rounded=0;orthogonalLoop=1;jettySize=auto;html=1;exitX=1.005;exitY=0.555;exitDx=0;exitDy=0;exitPerimeter=0;" edge="1" parent="WIyWlLk6GJQsqaUBKTNV-1" source="9V8cT2eW6NYt4f0OCbmF-4" target="9V8cT2eW6NYt4f0OCbmF-26">
          <mxGeometry relative="1" as="geometry">
            <Array as="points">
              <mxPoint x="731" y="-500" />
              <mxPoint x="770" y="-500" />
              <mxPoint x="770" y="-140" />
              <mxPoint x="330" y="-140" />
            </Array>
          </mxGeometry>
        </mxCell>
        <mxCell id="9V8cT2eW6NYt4f0OCbmF-40" style="edgeStyle=orthogonalEdgeStyle;rounded=0;orthogonalLoop=1;jettySize=auto;html=1;exitX=0.995;exitY=0.795;exitDx=0;exitDy=0;entryX=0.5;entryY=0;entryDx=0;entryDy=0;exitPerimeter=0;" edge="1" parent="WIyWlLk6GJQsqaUBKTNV-1" source="9V8cT2eW6NYt4f0OCbmF-4" target="9V8cT2eW6NYt4f0OCbmF-25">
          <mxGeometry relative="1" as="geometry" />
        </mxCell>
        <mxCell id="9V8cT2eW6NYt4f0OCbmF-43" style="edgeStyle=orthogonalEdgeStyle;rounded=0;orthogonalLoop=1;jettySize=auto;html=1;exitX=0.991;exitY=0.855;exitDx=0;exitDy=0;exitPerimeter=0;" edge="1" parent="WIyWlLk6GJQsqaUBKTNV-1" source="9V8cT2eW6NYt4f0OCbmF-4" target="9V8cT2eW6NYt4f0OCbmF-29">
          <mxGeometry relative="1" as="geometry">
            <Array as="points">
              <mxPoint x="1200" y="-422" />
              <mxPoint x="1200" y="-120" />
              <mxPoint x="770" y="-120" />
            </Array>
          </mxGeometry>
        </mxCell>
        <mxCell id="9V8cT2eW6NYt4f0OCbmF-4" value="userIDdbase&lt;div&gt;&lt;ul&gt;&lt;li&gt;userTable&lt;/li&gt;&lt;li&gt;employeeTable&lt;/li&gt;&lt;li&gt;productsTable&lt;/li&gt;&lt;li&gt;&lt;span style=&quot;background-color: transparent; color: light-dark(rgb(0, 0, 0), rgb(255, 255, 255));&quot;&gt;CustomerTable&lt;/span&gt;&lt;/li&gt;&lt;li&gt;SupplierTable&lt;/li&gt;&lt;li&gt;purchasesTable&lt;/li&gt;&lt;li&gt;SalesTable&lt;/li&gt;&lt;li&gt;TransactionTable&lt;/li&gt;&lt;li&gt;CreditorsTable&lt;/li&gt;&lt;li&gt;DebtorsTable&lt;/li&gt;&lt;li&gt;ExpiryTable&lt;/li&gt;&lt;/ul&gt;&lt;/div&gt;" style="whiteSpace=wrap;html=1;aspect=fixed;" vertex="1" parent="WIyWlLk6GJQsqaUBKTNV-1">
          <mxGeometry x="510" y="-610" width="220" height="220" as="geometry" />
        </mxCell>
        <mxCell id="9V8cT2eW6NYt4f0OCbmF-9" value="userTable&lt;div&gt;&lt;ul&gt;&lt;li&gt;userId&amp;nbsp;&amp;nbsp;&lt;/li&gt;&lt;li&gt;name&amp;nbsp;&lt;/li&gt;&lt;li&gt;email&amp;nbsp;&lt;/li&gt;&lt;li&gt;contact&lt;/li&gt;&lt;/ul&gt;&lt;/div&gt;" style="rounded=0;whiteSpace=wrap;html=1;" vertex="1" parent="WIyWlLk6GJQsqaUBKTNV-1">
          <mxGeometry x="20" y="-330" width="120" height="130" as="geometry" />
        </mxCell>
        <mxCell id="9V8cT2eW6NYt4f0OCbmF-10" style="edgeStyle=orthogonalEdgeStyle;rounded=0;orthogonalLoop=1;jettySize=auto;html=1;exitX=0;exitY=0.25;exitDx=0;exitDy=0;entryX=-0.008;entryY=0.377;entryDx=0;entryDy=0;entryPerimeter=0;" edge="1" parent="WIyWlLk6GJQsqaUBKTNV-1" source="WIyWlLk6GJQsqaUBKTNV-3" target="9V8cT2eW6NYt4f0OCbmF-9">
          <mxGeometry relative="1" as="geometry" />
        </mxCell>
        <mxCell id="9V8cT2eW6NYt4f0OCbmF-16" value="productTable&lt;br&gt;&lt;div&gt;&lt;ul&gt;&lt;li&gt;productId&amp;nbsp;&lt;/li&gt;&lt;li&gt;name&amp;nbsp;&lt;/li&gt;&lt;li&gt;qty&lt;/li&gt;&lt;li&gt;bp&lt;/li&gt;&lt;li&gt;sp&lt;/li&gt;&lt;li&gt;modifieddate&lt;/li&gt;&lt;li&gt;time&lt;/li&gt;&lt;li&gt;category&lt;/li&gt;&lt;/ul&gt;&lt;/div&gt;" style="rounded=0;whiteSpace=wrap;html=1;" vertex="1" parent="WIyWlLk6GJQsqaUBKTNV-1">
          <mxGeometry x="340" y="-340" width="120" height="170" as="geometry" />
        </mxCell>
        <mxCell id="9V8cT2eW6NYt4f0OCbmF-18" value="customerTable&lt;br&gt;&lt;div&gt;&lt;ul&gt;&lt;li&gt;customerId&lt;/li&gt;&lt;li&gt;Name&lt;/li&gt;&lt;li&gt;info&lt;/li&gt;&lt;/ul&gt;&lt;/div&gt;" style="rounded=0;whiteSpace=wrap;html=1;" vertex="1" parent="WIyWlLk6GJQsqaUBKTNV-1">
          <mxGeometry x="470" y="-310" width="120" height="80" as="geometry" />
        </mxCell>
        <mxCell id="9V8cT2eW6NYt4f0OCbmF-23" value="supplierTable&lt;br&gt;&lt;div&gt;&lt;ul&gt;&lt;li&gt;supplierId&lt;/li&gt;&lt;li&gt;Name&lt;/li&gt;&lt;li&gt;info&lt;/li&gt;&lt;/ul&gt;&lt;/div&gt;" style="rounded=0;whiteSpace=wrap;html=1;" vertex="1" parent="WIyWlLk6GJQsqaUBKTNV-1">
          <mxGeometry x="630" y="-310" width="120" height="80" as="geometry" />
        </mxCell>
        <mxCell id="9V8cT2eW6NYt4f0OCbmF-24" value="creditorsTable&lt;br&gt;&lt;div&gt;&lt;ul&gt;&lt;li&gt;customerId&lt;/li&gt;&lt;li&gt;creditorId&lt;/li&gt;&lt;li&gt;salesId&lt;/li&gt;&lt;li&gt;total&lt;/li&gt;&lt;/ul&gt;&lt;/div&gt;" style="rounded=0;whiteSpace=wrap;html=1;" vertex="1" parent="WIyWlLk6GJQsqaUBKTNV-1">
          <mxGeometry x="790" y="-320" width="120" height="100" as="geometry" />
        </mxCell>
        <mxCell id="9V8cT2eW6NYt4f0OCbmF-25" value="debtorsTable&lt;br&gt;&lt;div&gt;&lt;ul&gt;&lt;li&gt;customerId&lt;/li&gt;&lt;li&gt;debtorsId&lt;/li&gt;&lt;li&gt;supplierId&lt;/li&gt;&lt;li&gt;salesId&lt;/li&gt;&lt;li&gt;purchaseId&lt;/li&gt;&lt;li&gt;total&lt;/li&gt;&lt;/ul&gt;&lt;/div&gt;" style="rounded=0;whiteSpace=wrap;html=1;" vertex="1" parent="WIyWlLk6GJQsqaUBKTNV-1">
          <mxGeometry x="960" y="-340" width="120" height="130" as="geometry" />
        </mxCell>
        <mxCell id="9V8cT2eW6NYt4f0OCbmF-26" value="purchaseTable&lt;br&gt;&lt;div&gt;&lt;ul&gt;&lt;li&gt;supplierId&lt;/li&gt;&lt;li&gt;purchaseId&lt;/li&gt;&lt;li&gt;productid&lt;/li&gt;&lt;li&gt;employeeId&lt;/li&gt;&lt;li&gt;userId&lt;/li&gt;&lt;li&gt;qty&lt;/li&gt;&lt;li&gt;total&lt;/li&gt;&lt;li&gt;date&amp;amp;time&lt;/li&gt;&lt;li&gt;transactionId&lt;/li&gt;&lt;/ul&gt;&lt;/div&gt;" style="rounded=0;whiteSpace=wrap;html=1;" vertex="1" parent="WIyWlLk6GJQsqaUBKTNV-1">
          <mxGeometry x="270" y="20" width="120" height="180" as="geometry" />
        </mxCell>
        <mxCell id="9V8cT2eW6NYt4f0OCbmF-27" value="salesTable&lt;br&gt;&lt;div&gt;&lt;ul&gt;&lt;li&gt;customerId&lt;/li&gt;&lt;li&gt;salesId&lt;/li&gt;&lt;li&gt;productid&lt;/li&gt;&lt;li&gt;employeeId&lt;/li&gt;&lt;li&gt;userId&lt;/li&gt;&lt;li&gt;qty&lt;/li&gt;&lt;li&gt;total&lt;/li&gt;&lt;li&gt;date&amp;amp;time&lt;/li&gt;&lt;li&gt;transactionId&lt;/li&gt;&lt;/ul&gt;&lt;/div&gt;" style="rounded=0;whiteSpace=wrap;html=1;" vertex="1" parent="WIyWlLk6GJQsqaUBKTNV-1">
          <mxGeometry x="510" y="30" width="120" height="170" as="geometry" />
        </mxCell>
        <mxCell id="9V8cT2eW6NYt4f0OCbmF-28" value="TransactionTable&lt;br&gt;&lt;div&gt;&lt;ul&gt;&lt;li&gt;supplierId&lt;/li&gt;&lt;li&gt;salesId&lt;/li&gt;&lt;li&gt;customerId&lt;/li&gt;&lt;li&gt;qty&lt;/li&gt;&lt;li&gt;purchaseId&lt;/li&gt;&lt;li&gt;total&lt;/li&gt;&lt;li&gt;date&amp;amp;time&lt;/li&gt;&lt;li&gt;transactionmode&lt;/li&gt;&lt;/ul&gt;&lt;/div&gt;" style="rounded=0;whiteSpace=wrap;html=1;" vertex="1" parent="WIyWlLk6GJQsqaUBKTNV-1">
          <mxGeometry x="947" y="20" width="143" height="190" as="geometry" />
        </mxCell>
        <mxCell id="9V8cT2eW6NYt4f0OCbmF-29" value="ExpiryTable&lt;div&gt;&lt;ul&gt;&lt;li&gt;productid&lt;/li&gt;&lt;li&gt;qty&lt;/li&gt;&lt;li&gt;total&lt;/li&gt;&lt;li&gt;date&amp;amp;time&lt;/li&gt;&lt;li&gt;userId&lt;/li&gt;&lt;li&gt;employeeId&lt;/li&gt;&lt;/ul&gt;&lt;/div&gt;" style="rounded=0;whiteSpace=wrap;html=1;" vertex="1" parent="WIyWlLk6GJQsqaUBKTNV-1">
          <mxGeometry x="710" y="40" width="120" height="140" as="geometry" />
        </mxCell>
        <mxCell id="9V8cT2eW6NYt4f0OCbmF-32" style="edgeStyle=orthogonalEdgeStyle;rounded=0;orthogonalLoop=1;jettySize=auto;html=1;entryX=0.342;entryY=0.038;entryDx=0;entryDy=0;entryPerimeter=0;" edge="1" parent="WIyWlLk6GJQsqaUBKTNV-1" target="9V8cT2eW6NYt4f0OCbmF-0">
          <mxGeometry relative="1" as="geometry">
            <mxPoint x="510" y="-555" as="sourcePoint" />
          </mxGeometry>
        </mxCell>
        <mxCell id="9V8cT2eW6NYt4f0OCbmF-37" style="edgeStyle=orthogonalEdgeStyle;rounded=0;orthogonalLoop=1;jettySize=auto;html=1;exitX=1;exitY=0.5;exitDx=0;exitDy=0;entryX=0.592;entryY=0;entryDx=0;entryDy=0;entryPerimeter=0;" edge="1" parent="WIyWlLk6GJQsqaUBKTNV-1" source="9V8cT2eW6NYt4f0OCbmF-4" target="9V8cT2eW6NYt4f0OCbmF-23">
          <mxGeometry relative="1" as="geometry">
            <Array as="points">
              <mxPoint x="730" y="-510" />
              <mxPoint x="750" y="-510" />
              <mxPoint x="750" y="-350" />
              <mxPoint x="701" y="-350" />
            </Array>
          </mxGeometry>
        </mxCell>
        <mxCell id="9V8cT2eW6NYt4f0OCbmF-39" style="edgeStyle=orthogonalEdgeStyle;rounded=0;orthogonalLoop=1;jettySize=auto;html=1;exitX=0.995;exitY=0.705;exitDx=0;exitDy=0;entryX=0.442;entryY=0.03;entryDx=0;entryDy=0;entryPerimeter=0;exitPerimeter=0;" edge="1" parent="WIyWlLk6GJQsqaUBKTNV-1" source="9V8cT2eW6NYt4f0OCbmF-4" target="9V8cT2eW6NYt4f0OCbmF-24">
          <mxGeometry relative="1" as="geometry" />
        </mxCell>
        <mxCell id="9V8cT2eW6NYt4f0OCbmF-42" style="edgeStyle=orthogonalEdgeStyle;rounded=0;orthogonalLoop=1;jettySize=auto;html=1;exitX=1;exitY=0.605;exitDx=0;exitDy=0;entryX=0.833;entryY=0;entryDx=0;entryDy=0;entryPerimeter=0;exitPerimeter=0;" edge="1" parent="WIyWlLk6GJQsqaUBKTNV-1" source="9V8cT2eW6NYt4f0OCbmF-4" target="9V8cT2eW6NYt4f0OCbmF-27">
          <mxGeometry relative="1" as="geometry">
            <Array as="points">
              <mxPoint x="1110" y="-477" />
              <mxPoint x="1110" y="-180" />
              <mxPoint x="610" y="-180" />
            </Array>
          </mxGeometry>
        </mxCell>
        <mxCell id="9V8cT2eW6NYt4f0OCbmF-44" style="edgeStyle=orthogonalEdgeStyle;rounded=0;orthogonalLoop=1;jettySize=auto;html=1;exitX=1.009;exitY=0.677;exitDx=0;exitDy=0;entryX=0.658;entryY=0;entryDx=0;entryDy=0;entryPerimeter=0;exitPerimeter=0;" edge="1" parent="WIyWlLk6GJQsqaUBKTNV-1" source="9V8cT2eW6NYt4f0OCbmF-4" target="9V8cT2eW6NYt4f0OCbmF-28">
          <mxGeometry relative="1" as="geometry">
            <Array as="points">
              <mxPoint x="1240" y="-461" />
              <mxPoint x="1240" y="20" />
            </Array>
          </mxGeometry>
        </mxCell>
      </root>
    </mxGraphModel>
  </diagram>
</mxfile>
